<?xml version="1.0" encoding="utf-8"?>
<svg viewBox="150 150 200 200" xmlns="http://www.w3.org/2000/svg">
  <defs/>
  <g transform="matrix(1, 0, 0, 1, 188.0000223795572, 185.940891011556)">
    <path d=" M 112 6 C 112 6 12 6 12 6 C 5.400000095367432 6 0 11.399999618530273 0 18 C 0 24.600000381469727 5.400000095367432 30 12 30 C 12 30 112 30 112 30 C 118.59999990463257 30 124 24.59999990463257 124 18 C 124 11.400000095367432 118.5999984741211 6 112 6 Z" style="fill: rgb(70, 70, 70);"/>
    <path d=" M 112 50 C 112 50 12 50 12 50 C 5.400000095367432 50 0 55.400001525878906 0 62 C 0 68.59999990463257 5.400000095367432 74 12 74 C 12 74 112 74 112 74 C 118.59999990463257 74 124 68.59999990463257 124 62 C 124 55.400001525878906 118.5999984741211 50 112 50 Z" style="fill: rgb(70, 70, 70);"/>
    <path d=" M 112 94 C 112 94 12 94 12 94 C 5.400000095367432 94 0 99.40000009536743 0 106 C 0 112.59999990463257 5.400000095367432 118 12 118 C 12 118 112 118 112 118 C 118.59999990463257 118 124 112.59999990463257 124 106 C 124 99.40000009536743 118.5999984741211 94 112 94 Z" style="fill: rgb(70, 70, 70);"/>
  </g>
  <g transform="matrix(1, 0, 0, 1, 188.00001792266653, 187.99997472155567)"/>
  <g transform="matrix(1, 0, 0, 1, 188.00001792266653, 187.99997472155567)"/>
  <g transform="matrix(1, 0, 0, 1, 188.00001792266653, 187.99997472155567)"/>
  <g transform="matrix(1, 0, 0, 1, 188.00001792266653, 187.99997472155567)"/>
  <g transform="matrix(1, 0, 0, 1, 188.00001792266653, 187.99997472155567)"/>
  <g transform="matrix(1, 0, 0, 1, 188.00001792266653, 187.99997472155567)"/>
  <g transform="matrix(1, 0, 0, 1, 188.00001792266653, 187.99997472155567)"/>
  <g transform="matrix(1, 0, 0, 1, 188.00001792266653, 187.99997472155567)"/>
  <g transform="matrix(1, 0, 0, 1, 188.00001792266653, 187.99997472155567)"/>
  <g transform="matrix(1, 0, 0, 1, 188.00001792266653, 187.99997472155567)"/>
  <g transform="matrix(1, 0, 0, 1, 188.00001792266653, 187.99997472155567)"/>
  <g transform="matrix(1, 0, 0, 1, 188.00001792266653, 187.99997472155567)"/>
  <g transform="matrix(1, 0, 0, 1, 188.00001792266653, 187.99997472155567)"/>
  <g transform="matrix(1, 0, 0, 1, 188.00001792266653, 187.99997472155567)"/>
  <g transform="matrix(1, 0, 0, 1, 188.00001792266653, 187.99997472155567)"/>
</svg>