<?xml version="1.0" encoding="utf-8"?><svg xmlns="http://www.w3.org/2000/svg" xmlns:xlink="http://www.w3.org/1999/xlink" version="1.1" class="page" pageAlignment="none" x="0px" y="0px" width="650px" height="550px" viewBox="0 0 650 550" enable-background="new 0 0 650 550" xml:space="preserve"><defs/><style type="text/css"/><style type="text/css"/><g type="LAYER" name="workspace" id="workspace" locked="true"/><g type="LAYER" name="Layer 01" id="Layer 01"><g transform="matrix(1 0 0 1 -52.9154393144845 -3.552713678800501e-14)"><path class="st0 " transform="matrix(1 0 0 1 5.684341886080802e-14 0)" width="650.0000000000002" height="550" stroke-width="1.259282809791805" stroke-miterlimit="3" stroke="none" fill="#4B4B4B" d="M377.9087962826277,0 C198.434742715944,0 52.91543931448447,105.88251953124998 52.91543931448447,236.49033203124992 C52.91543931448447,360.2510742187499 183.5764947957239,461.7421874999999 349.9888715021883,472.05791015624993 L349.9888715021883,550 L586.8971022754373,417.6143554687499 C657.8505874257061,374.2352539062498 702.9154393144847,309.1880859374999 702.9154393144847,236.49033203124986 C702.9139630851831,105.88251953124998 557.41975558185,0 377.9087962826277,0 Z M207.2832611495057,268.03046874999995 C183.34915548328334,268.03046874999995 163.94116885564975,253.90771484374994 163.94116885564975,236.49140624999995 C163.94116885564975,219.07617187499994 183.34915548328334,204.9523437499999 207.2832611495057,204.9523437499999 C231.21589058642635,204.9523437499999 250.61206737964753,219.0750976562499 250.61206737964753,236.49140624999995 C250.61206737964753,253.9066406249999 231.21589058642635,268.03046874999995 207.2832611495057,268.03046874999995 Z M377.9087962826277,268.03046874999995 C353.98797668011923,268.03046874999995 334.57999005248564,253.90771484374994 334.57999005248564,236.49140624999995 C334.57999005248564,219.07617187499994 353.98797668011923,204.9523437499999 377.9087962826277,204.9523437499999 C401.8429019488499,204.9523437499999 421.2508885764836,219.0750976562499 421.2508885764836,236.49140624999995 C421.2508885764836,253.9066406249999 401.8429019488499,268.03046874999995 377.9087962826277,268.03046874999995 Z M548.5476174794634,268.03046874999995 C524.6135118132412,268.03046874999995 505.2173350200202,253.90771484374994 505.2173350200202,236.49140624999995 C505.2173350200202,219.07617187499994 524.6135118132413,204.9523437499999 548.5476174794634,204.9523437499999 C572.4817231456857,204.9523437499999 591.8897097733194,219.0750976562499 591.8897097733194,236.49140624999995 C591.8897097733194,253.9066406249999 572.4817231456857,268.03046874999995 548.5476174794634,268.03046874999995 Z "/></g></g></svg>