<?xml version="1.0" encoding="utf-8"?><svg xmlns="http://www.w3.org/2000/svg" xmlns:xlink="http://www.w3.org/1999/xlink" version="1.1" class="page" pageAlignment="none" x="0px" y="0px" width="650px" height="550px" viewBox="0 0 650 550" enable-background="new 0 0 650 550" xml:space="preserve"><defs/><style type="text/css"/><style type="text/css"/><g type="LAYER" name="workspace" id="workspace" locked="true"/><g type="LAYER" name="Layer 01" id="Layer 01"><g transform="matrix(1 0 0 1 -9.23453462260008 0)"><path class="st0 " transform="matrix(1 0 0 1 -2.842170943040401e-14 0)" width="75.64275872042845" height="111.20849609375003" stroke-width="1.1842735840305247" stroke-miterlimit="3" stroke="none" fill="#4B4B4B" d="M194.7869254841781,111.20849609375003 C215.66875027618553,111.20849609375003 232.60242962796397,97.27587890625 232.60242962796397,80.08515624999995 L232.60242962796397,31.113671875000016 C232.60242962796397,13.932617187499993 215.66875027618553,0 194.7869254841781,0 C173.89335025931283,0 156.95967090753552,13.932617187499993 156.95967090753552,31.113671875000016 L156.95967090753552,80.08623046874999 C156.95967090753552,97.27587890625 173.89335025931283,111.20849609375003 194.7869254841781,111.20849609375003 Z "/><path class="st0 " transform="matrix(1 0 0 1 -2.842170943040401e-14 0)" width="75.64145311677703" height="111.20849609375003" stroke-width="1.1842735840305247" stroke-miterlimit="3" stroke="none" fill="#4B4B4B" d="M473.6925885902292,111.20849609375003 C494.57571898588753,111.20849609375003 511.5080927340143,97.27587890625 511.5080927340143,80.08515624999995 L511.5080927340143,31.113671875000016 C511.50939833766506,13.932617187499993 494.57571898588753,0 473.6925885902292,0 C452.8003189690148,0 435.8666396172373,13.932617187499993 435.8666396172373,31.113671875000016 L435.8666396172373,80.08623046874999 C435.8666396172373,97.27587890625 452.8003189690148,111.20849609375003 473.6925885902292,111.20849609375003 Z "/><path class="st0 " transform="matrix(1 0 0 1 -2.842170943040401e-14 0)" width="649.9999999999999" height="505.64873046874993" stroke-width="1.1842735840305247" stroke-miterlimit="3" stroke="none" fill="#4B4B4B" d="M568.1517071269888,44.351269531249976 L544.7487616851523,44.351269531249976 L544.7487616851523,80.08515624999995 C544.7487616851523,112.32998046875002 512.8724485491725,138.5570312499999 473.6938941938804,138.5570312499999 C434.50358940572914,138.5570312499999 402.6285818734003,112.32998046875002 402.6285818734003,80.08515624999995 L402.6285818734003,44.351269531249976 L265.84048737180024,44.351269531249976 L265.84048737180024,80.08515624999995 C265.84048737180024,112.32998046875002 233.96547983947121,138.5570312499999 194.7869254841781,138.5570312499999 C155.59792629967862,138.5570312499999 123.72030756004759,112.32998046875002 123.72030756004759,80.08515624999995 L123.72030756004759,44.351269531249976 L100.31736211821132,44.351269531249976 C50.015064657510806,44.351269531249976 9.23453462260025,77.90341796874992 9.23453462260025,119.29199218749997 L9.23453462260025,475.05927734375024 C9.23453462260025,516.4467773437497 50.01637026116086,549.9999999999999 100.31736211821132,549.9999999999999 L568.1517071269888,549.9999999999999 C618.4540045876903,549.9999999999999 659.2345346226001,516.4467773437497 659.2345346226001,475.05927734375 L659.2345346226001,119.29199218749997 C659.2345346226001,77.90449218749998 618.4526989840393,44.351269531249976 568.1517071269888,44.351269531249976 Z M587.5516717752591,461.901171875 C587.5516717752591,481.05019531249997 568.6165020266989,496.62958984375 545.3428113462979,496.62958984375 L123.12625789890214,496.62958984375 C99.852567218502,496.62958984375 80.91739746994088,481.05019531249997 80.91739746994088,461.901171875 L80.91739746994088,183.55820312499998 L587.5529773789101,183.55820312499998 L587.5529773789101,461.901171875 Z "/><path class="st0 " transform="matrix(1 0 0 1 249.01647872669514 399.3612304687501)" width="66.83515649166208" height="54.991406250000125" stroke-width="1.1842735840305247" stroke-miterlimit="3" stroke="none" fill="#4B4B4B" d="M-2.2737367544323206e-13,5.684341886080802e-14 L66.83515649166185,5.684341886080802e-14 L66.83515649166185,54.99140625000018 L-2.2737367544323206e-13,54.99140625000018 L-2.2737367544323206e-13,5.684341886080802e-14 Z "/><path class="st0 " transform="matrix(1 0 0 1 249.01647872669514 314.12197265625)" width="66.83515649166208" height="54.9892578125" stroke-width="1.1842735840305247" stroke-miterlimit="3" stroke="none" fill="#4B4B4B" d="M-2.2737367544323206e-13,-5.684341886080802e-14 L66.83515649166185,-5.684341886080802e-14 L66.83515649166185,54.98925781249994 L-2.2737367544323206e-13,54.98925781249994 L-2.2737367544323206e-13,-5.684341886080802e-14 Z "/><path class="st0 " transform="matrix(1 0 0 1 145.42596825575362 399.3612304687501)" width="66.83385088801117" height="54.991406250000125" stroke-width="1.1842735840305247" stroke-miterlimit="3" stroke="none" fill="#4B4B4B" d="M0,5.684341886080802e-14 L66.83385088801117,5.684341886080802e-14 L66.83385088801117,54.99140625000018 L0,54.99140625000018 L0,5.684341886080802e-14 Z "/><path class="st0 " transform="matrix(1 0 0 1 145.42596825575362 314.12197265625)" width="66.83385088801117" height="54.9892578125" stroke-width="1.1842735840305247" stroke-miterlimit="3" stroke="none" fill="#4B4B4B" d="M0,-5.684341886080802e-14 L66.83385088801117,-5.684341886080802e-14 L66.83385088801117,54.98925781249994 L0,54.98925781249994 L0,-5.684341886080802e-14 Z "/><path class="st0 " transform="matrix(1 0 0 1 456.2079444977843 228.8805664062501)" width="66.8338508880114" height="54.99033203124992" stroke-width="1.1842735840305247" stroke-miterlimit="3" stroke="none" fill="#4B4B4B" d="M0,1.1368683772161603e-13 L66.8338508880114,1.1368683772161603e-13 L66.8338508880114,54.990332031250034 L0,54.990332031250034 L0,1.1368683772161603e-13 Z "/><path class="st0 " transform="matrix(1 0 0 1 352.61743402684306 228.8805664062501)" width="66.84560132086926" height="54.99033203124992" stroke-width="1.1842735840305247" stroke-miterlimit="3" stroke="none" fill="#4B4B4B" d="M0,1.1368683772161603e-13 L66.84560132086926,1.1368683772161603e-13 L66.84560132086926,54.990332031250034 L0,54.990332031250034 L0,1.1368683772161603e-13 Z "/><path class="st0 " transform="matrix(1 0 0 1 352.61743402684306 314.12197265625)" width="66.84560132086926" height="54.9892578125" stroke-width="1.1842735840305247" stroke-miterlimit="3" stroke="none" fill="#4B4B4B" d="M0,-5.684341886080802e-14 L66.84560132086926,-5.684341886080802e-14 L66.84560132086926,54.98925781249994 L0,54.98925781249994 L0,-5.684341886080802e-14 Z "/><path class="st0 " transform="matrix(1 0 0 1 456.2079444977843 399.3612304687501)" width="66.8338508880114" height="54.991406250000125" stroke-width="1.1842735840305247" stroke-miterlimit="3" stroke="none" fill="#4B4B4B" d="M0,5.684341886080802e-14 L66.8338508880114,5.684341886080802e-14 L66.8338508880114,54.99140625000018 L0,54.99140625000018 L0,5.684341886080802e-14 Z "/><path class="st0 " transform="matrix(1 0 0 1 456.2079444977843 314.12197265625)" width="66.8338508880114" height="54.9892578125" stroke-width="1.1842735840305247" stroke-miterlimit="3" stroke="none" fill="#4B4B4B" d="M0,-5.684341886080802e-14 L66.8338508880114,-5.684341886080802e-14 L66.8338508880114,54.98925781249994 L0,54.98925781249994 L0,-5.684341886080802e-14 Z "/><path class="st0 " transform="matrix(1 0 0 1 352.61743402684306 399.3612304687501)" width="66.84560132086926" height="54.991406250000125" stroke-width="1.1842735840305247" stroke-miterlimit="3" stroke="none" fill="#4B4B4B" d="M0,5.684341886080802e-14 L66.84560132086926,5.684341886080802e-14 L66.84560132086926,54.99140625000018 L0,54.99140625000018 L0,5.684341886080802e-14 Z "/><path class="st0 " transform="matrix(1 0 0 1 249.01647872669514 228.8805664062501)" width="66.83515649166208" height="54.99033203124992" stroke-width="1.1842735840305247" stroke-miterlimit="3" stroke="none" fill="#4B4B4B" d="M-2.2737367544323206e-13,1.1368683772161603e-13 L66.83515649166185,1.1368683772161603e-13 L66.83515649166185,54.990332031250034 L-2.2737367544323206e-13,54.990332031250034 L-2.2737367544323206e-13,1.1368683772161603e-13 Z "/><path class="st0 " transform="matrix(1 0 0 1 145.42596825575362 228.8805664062501)" width="66.83385088801117" height="54.99033203124992" stroke-width="1.1842735840305247" stroke-miterlimit="3" stroke="none" fill="#4B4B4B" d="M0,1.1368683772161603e-13 L66.83385088801117,1.1368683772161603e-13 L66.83385088801117,54.990332031250034 L0,54.990332031250034 L0,1.1368683772161603e-13 Z "/></g></g></svg>