<?xml version="1.0" encoding="utf-8"?><svg xmlns="http://www.w3.org/2000/svg" xmlns:xlink="http://www.w3.org/1999/xlink" version="1.1" class="page" pageAlignment="none" x="0px" y="0px" width="650px" height="550px" viewBox="0 0 650 550" enable-background="new 0 0 650 550" xml:space="preserve"><defs/><style type="text/css"/><style type="text/css"/><g type="LAYER" name="workspace" id="workspace" locked="true"/><g type="LAYER" name="Layer 01" id="Layer 01"><g transform="matrix(1 0 0 1 0 -40.62147171992571)"><path class="st0 " transform="matrix(1 0 0 1 0 5.329070518200751e-15)" width="106.66982270777225" height="103.59288200462161" stroke-width="1.2510797188923044" stroke-miterlimit="3" stroke="none" fill="rgb(82, 82, 82)" d="M103.39062809944153,144.21435372454732 C132.85136949270975,144.21435372454732 156.7198272794485,121.01494352567065 156.7198272794485,92.42284395025777 C156.7198272794485,63.80115465515406 132.85136949270975,40.62147171992571 103.39062809944153,40.62147171992571 C73.91719110310078,40.62147171992571 50.050004571676254,63.80115700671727 50.050004571676254,92.42284395025777 C50.049999728798866,121.01494117410743 73.91718626022339,144.21435372454732 103.39062809944153,144.21435372454732 Z "/><path class="st0 " transform="matrix(1 0 0 1 0 5.329070518200751e-15)" width="368.5561768183021" height="421.87124138698294" stroke-width="1.2510797188923044" stroke-miterlimit="3" stroke="none" fill="rgb(82, 82, 82)" d="M284.58574265241634,302.10522968243623 C284.58574265241634,301.04987038659317 284.405469209014,300.04259394432967 284.26709032501105,299.02545467859187 C284.26709032501105,299.02545467859187 363.92763859475974,242.87812088137068 363.92763859475974,242.87812088137068 C368.93213067087356,239.3434068767335 370.0594744354023,232.50822924730298 366.41972851357446,227.63705544691854 C364.30722846998844,224.81988714771262 360.9074238163885,223.13451798410114 357.3171893542168,223.13451798410114 C354.9342790793163,223.13451798410114 352.6618181902452,223.86069392646036 350.7270526548383,225.2168799570471 C350.7270526548383,225.2168799570471 270.90654414496385,281.48134041391717 270.90654414496385,281.48134041391717 C267.9345713870134,280.16460714695467 264.67441534041427,279.3804850131371 261.19462996139214,279.3804850131371 C261.19462996139214,279.3804850131371 217.80458911671303,279.3804850131371 217.80458911671303,279.3804850131371 C217.80458911671303,279.3804850131371 207.2750973457005,221.16065272782143 207.2750973457005,221.16065272782143 C201.49238271988008,191.80415637159425 189.35947175486945,168.75023033294275 163.51689611910848,168.75023033294275 C163.51689611910848,168.75023033294275 53.95634536980651,168.75023033294275 53.95634536980651,168.75023033294275 C28.115038946270943,168.75022548284366 0,196.05394355993505 0,221.16064317459592 C0,221.16064317459592 0,395.2493121741785 0,395.2493121741785 C0,407.7977319292692 10.468555055558681,417.9740569904504 23.389843478798866,417.9740569904504 C29.75146477110684,417.9740569904504 23.389843478798866,417.9740569904504 39.72109388560057,417.9740569904504 C39.72109388560057,417.9740569904504 48.61416043713689,566.444373255263 48.61416043713689,566.444373255263 C48.61416043713689,579.7966407911199 59.770801197737455,590.6214717199257 73.51982453837991,590.6214717199257 C83.82841814309359,590.6214717199257 109.57197388634086,590.6214717199257 123.31972839310771,590.6214717199257 C137.06875173375016,590.6214717199257 148.21523698046815,579.7966419669015 148.21523698046815,566.444373255263 C148.21523698046815,566.444373255263 159.9000032059849,272.3616048835622 159.9000032059849,272.3616048835622 C159.9000032059849,272.3616048835622 160.48779617412953,272.3616048835622 160.48779617412953,272.3616048835622 C160.48779617412953,272.3616048835622 167.17822583741514,301.0498692842979 167.17822583741514,301.0498692842979 C169.39228828414343,314.7313203940976 181.51504252455203,324.8201120426654 195.7731479255018,324.8201120426654 C195.7731479255018,324.8201120426654 261.19717186666105,324.8201120426654 261.19717186666105,324.8201120426654 C274.11718517541885,324.8201073395391 284.58574265241634,314.6536412070558 284.58574265241634,302.10522968243623 Z M86.36113405227661,269.8329219480175 C86.36113405227661,269.8329219480175 86.36113405227661,187.0772179044054 86.36113405227661,187.0772179044054 C86.36113405227661,187.0772179044054 116.98984429240232,187.0772179044054 116.98984429240232,187.0772179044054 C116.98984429240232,187.0772179044054 116.98984429240232,269.8329219480175 116.98984429240232,269.8329219480175 C116.98984429240232,269.8329219480175 100.71826176717877,288.4718492274819 100.71826176717877,288.4718492274819 C100.71826176717877,288.4718492274819 86.36113405227661,269.8329219480175 86.36113405227661,269.8329219480175 Z "/><path class="st0 " transform="matrix(1 0 0 1 0 5.329070518200751e-15)" width="408.3751901984217" height="343.7142591788802" stroke-width="1.2510797188923044" stroke-miterlimit="3" stroke="none" fill="rgb(82, 82, 82)" d="M241.62480980157852,58.52559193826672 C241.62480980157852,58.52559193826672 241.62480980157852,247.65066394847625 241.62480980157852,247.65066394847625 C241.62480980157852,247.65066394847625 272.2535103559494,247.65066394847625 272.2535103559494,247.65066394847625 C272.2535103559494,247.65066394847625 272.2535103559494,88.26921673714072 272.2535103559494,88.26921673714072 C272.2535103559494,88.26921673714072 619.3712800741198,88.26921673714072 619.3712800741198,88.26921673714072 C619.3712800741198,88.26921673714072 619.3712800741198,372.4962263182727 619.3712800741198,372.4962263182727 C619.3712800741198,372.4962263182727 272.2535103559494,372.4962263182727 272.2535103559494,372.4962263182727 C272.2535103559494,372.4962263182727 272.2535103559494,336.7200329848211 272.2535103559494,336.7200329848211 C272.2535103559494,336.7200329848211 241.62480980157852,336.7200329848211 241.62480980157852,336.7200329848211 C241.62480980157852,336.7200329848211 241.62480980157852,402.2398511171468 241.62480980157852,402.2398511171468 C241.62480980157852,402.2398511171468 650.0000000000002,402.2398511171468 650.0000000000002,402.2398511171468 C650.0000000000002,402.2398511171468 650.0000000000002,58.52559193826672 650.0000000000002,58.52559193826672 C650.0000000000002,58.52559193826672 241.62480980157852,58.52559193826672 241.62480980157852,58.52559193826672 Z "/></g></g></svg>