<?xml version="1.0" encoding="utf-8"?><svg xmlns="http://www.w3.org/2000/svg" xmlns:xlink="http://www.w3.org/1999/xlink" version="1.1" class="page" pageAlignment="none" x="0px" y="0px" width="650px" height="550px" viewBox="0 0 650 550" enable-background="new 0 0 650 550" xml:space="preserve"><defs/><style type="text/css"/><style type="text/css"/><g type="LAYER" name="workspace" id="workspace" locked="true"/><g type="LAYER" name="Layer 01" id="Layer 01"><g transform="matrix(1 0 0 1 4.547473508864641e-13 -92.63169987884868)"><path class="st0 " transform="matrix(1 0 0 1 0 1.7763568394002505e-15)" width="102.36230468750006" height="115.78962484856072" stroke-width="1.3502313625339875" stroke-miterlimit="3" stroke="none" fill="#4B4B4B" d="M174.0159179687501,526.8420750302879 C145.74599609375002,526.8420750302879 122.83476562500005,552.7701623010403 122.83476562500005,584.7368874545681 C122.83476562500005,616.6921241174751 145.74599609375002,642.6316998788486 174.0159179687501,642.6316998788486 C202.28583984375,642.6316998788486 225.1970703125001,616.6935601788025 225.1970703125001,584.7368874545681 C225.1970703125001,552.771598362368 202.28457031250008,526.8420750302879 174.0159179687501,526.8420750302879 Z M174.0159179687501,605.001148849062 C164.1199218750001,605.001148849062 156.1028320312501,595.9324215649413 156.1028320312501,584.738323515896 C156.1028320312501,573.5442254668503 164.1199218750001,564.4754981827296 174.0159179687501,564.4754981827296 C183.9119140625,564.4754981827296 191.92900390625,573.5442254668503 191.92900390625,584.738323515896 C191.9290039062501,595.9309855036138 183.9119140625001,605.001148849062 174.0159179687501,605.001148849062 Z "/><path class="st0 " transform="matrix(1 0 0 1 0 1.7763568394002505e-15)" width="650.0000000000005" height="512.3450359276436" stroke-width="1.3502313625339875" stroke-miterlimit="3" stroke="none" fill="#4B4B4B" d="M562.9520507812501,92.63169987884866 L87.04794921874998,92.63169987884866 C38.97587890624999,92.63169987884866 0,136.72021869908508 0,191.09811693194635 L0,604.9767358064922 L104.71093750000006,604.9767358064922 C103.23193359375,598.4986631574549 102.3623046875,591.7362503655429 102.3623046875,584.7368874545681 C102.3623046875,539.9820361783014 134.4509765625,503.6841500605758 174.0159179687501,503.6841500605758 C213.5808593750001,503.6841500605758 245.66953125000003,539.9820361783014 245.66953125000003,584.7368874545683 C245.66953125000003,591.7362503655431 244.79863281250022,598.4986631574552 243.3196289062501,604.9767358064922 L457.8602539062502,604.9767358064922 C456.3812500000001,598.4986631574549 455.5116210937501,591.7362503655429 455.5116210937501,584.7368874545683 C455.5116210937501,539.9820361783014 487.6002929687501,503.6841500605758 527.1652343750002,503.6841500605758 C566.7301757812502,503.6841500605758 598.8188476562502,539.9820361783014 598.8188476562502,584.7368874545683 C598.8188476562502,591.7362503655431 597.9479492187502,598.4986631574552 596.4689453125002,604.9767358064922 L650.0000000000005,604.9767358064922 L650.0000000000005,191.09811693194635 C650.0000000000005,136.72021869908508 611.02412109375,92.63169987884866 562.9520507812501,92.63169987884866 Z M158.6609375000001,250.88135000208885 L61.417382812499966,250.88135000208885 L61.417382812499966,191.05359903078912 C61.417382812499966,175.0759806993357 72.88251953125001,162.10547478798512 87.00859374999999,162.10547478798512 L158.66220703125003,162.10547478798512 L158.66220703125003,250.88135000208885 Z M307.08691406250006,412.986824790074 L184.2521484375,412.986824790074 L184.2521484375,329.99971278773455 L307.08691406250006,329.99971278773455 L307.08691406250006,412.986824790074 Z M307.08691406250006,250.88135000208885 L184.2521484375,250.88135000208885 L184.2521484375,162.10547478798512 L307.08691406250006,162.10547478798512 L307.08691406250006,250.88135000208885 Z M455.5116210937501,412.986824790074 L332.67685546875015,412.986824790074 L332.67685546875015,329.99971278773455 L455.5116210937501,329.99971278773455 L455.5116210937501,412.986824790074 Z M455.5116210937501,250.88135000208885 L332.67685546875015,250.88135000208885 L332.67685546875015,162.10547478798512 L455.5116210937501,162.10547478798512 L455.5116210937501,250.88135000208885 Z M588.5826171875001,468.9472626060075 L506.6927734375002,468.9472626060075 L506.6927734375002,318.42075030287845 L588.5826171875001,318.42075030287845 L588.5826171875001,468.9472626060075 Z M588.5826171875001,250.88135000208885 L481.1028320312501,250.88135000208885 L481.1028320312501,162.10547478798512 L562.99267578125,162.10547478798512 C577.1174804687503,162.10547478798512 588.5826171875001,175.0745446380081 588.5826171875001,191.05359903078912 L588.5826171875001,250.88135000208885 Z "/><path class="st0 " transform="matrix(1 0 0 1 0 1.7763568394002505e-15)" width="102.3623046875004" height="115.78962484856072" stroke-width="1.3502313625339875" stroke-miterlimit="3" stroke="none" fill="#4B4B4B" d="M527.1652343750002,526.8420750302879 C498.8953125,526.8420750302879 475.98408203125,552.7701623010403 475.98408203125,584.7368874545681 C475.98408203125,616.6921241174751 498.8953125000002,642.6316998788486 527.1652343750002,642.6316998788486 C555.4351562500001,642.6316998788486 578.3463867187504,616.6935601788025 578.3463867187504,584.7368874545681 C578.3463867187504,552.771598362368 555.4351562500001,526.8420750302879 527.1652343750002,526.8420750302879 Z M527.1652343750002,605.001148849062 C517.2692382812504,605.001148849062 509.25214843750024,595.9324215649413 509.25214843750024,584.738323515896 C509.25214843750024,573.5442254668503 517.2692382812504,564.4754981827296 527.1652343750002,564.4754981827296 C537.0612304687504,564.4754981827296 545.0783203125002,573.5442254668503 545.0783203125002,584.738323515896 C545.0783203125002,595.9309855036138 537.0612304687504,605.001148849062 527.1652343750002,605.001148849062 Z "/></g></g></svg>